<svg xmlns="http://www.w3.org/2000/svg" xmlns:xlink="http://www.w3.org/1999/xlink" height="100%" stroke-miterlimit="10" viewBox="0 0 720 180" width="100%" fill-rule="nonzero" stroke-linecap="round" stroke-linejoin="round" xmlns:v="https://vecta.io/nano"><clipPath id="A"><path d="M0 0h720v180H0z"/></clipPath><g clip-path="url(#A)"><path d="M-1.739 68.524v6.5h3.5c3.1 0 3.5.3 3.5 2.5 0 2.3.3 2.5 5 2.5 4.3 0 5 .3 5 2s.7 2 4.5 2 4.5-.3 4.5-2 .7-2 4.5-2c4.1 0 4.5-.2 4.5-2.5s.4-2.5 4.5-2.5 4.5-.2 4.5-2.5.4-2.5 4-2.5c2.9 0 4-.4 4-1.5s1.2-1.5 4.5-1.5 4.5.4 4.5 1.5 1.2 1.5 4.5 1.5c4.1 0 4.5.2 4.5 2.5s.4 2.5 4.5 2.5 4.5.2 4.5 2.5.4 2.5 4.5 2.5c3.8 0 4.5.3 4.5 2s.7 2 5 2 5-.3 5-2 .7-2 5-2c4.7 0 5-.2 5-2.5s.4-2.5 4-2.5 4-.3 4-2.5c0-2.3.4-2.5 4.5-2.5 3.3 0 4.5-.4 4.5-1.5s1.2-1.5 4.5-1.5 4.5.4 4.5 1.5 1.2 1.5 4.5 1.5c4.1 0 4.5.2 4.5 2.5s.4 2.5 4.4 2.5c4.1 0 4.3.1 3.8 2.5-.4 2.4-.2 2.5 4.7 2.5 4.4 0 5.1.3 5.1 2s.7 2 5 2 5-.3 5-2 .7-2 4.5-2c4.1 0 4.5-.2 4.5-2.5s.4-2.5 4.5-2.5 4.5-.2 4.5-2.5.4-2.5 4.5-2.5c3.3 0 4.5-.4 4.5-1.5s1.2-1.5 4.5-1.5 4.5.4 4.5 1.5 1.1 1.5 4 1.5c3.6 0 4 .2 4 2.5s.4 2.5 4.5 2.5 4.5.2 4.5 2.5.4 2.5 4.5 2.5c3.8 0 4.5.3 4.5 2s.7 2 4.5 2 4.5-.3 4.5-2 .7-2 5-2c4.7 0 5-.2 5-2.5 0-2.5.1-2.5 8-2.5s8 0 8 2.5c0 2.3.3 2.5 5 2.5 4.3 0 5 .3 5 2s.7 2 4.5 2 4.5-.3 4.5-2 .7-2 4.5-2c4.1 0 4.5-.2 4.5-2.5s.4-2.5 4.5-2.5 4.5-.2 4.5-2.5.4-2.5 4-2.5c2.9 0 4-.4 4-1.5s1.2-1.5 4.5-1.5 4.5.4 4.5 1.5 1.2 1.5 4.5 1.5c4.1 0 4.5.2 4.5 2.5s.4 2.5 4.5 2.5 4.5.2 4.5 2.5.4 2.5 4.5 2.5c3.8 0 4.5.3 4.5 2s.7 2 5 2 5-.3 5-2 .7-2 5.1-2c4.9 0 5.1-.1 4.7-2.5-.5-2.4-.3-2.5 3.8-2.5 4 0 4.4-.2 4.4-2.5s.4-2.5 4.5-2.5c3.3 0 4.5-.4 4.5-1.5s1.2-1.5 4.5-1.5 4.5.4 4.5 1.5 1.2 1.5 4.5 1.5c4.1 0 4.5.2 4.5 2.5 0 2.2.4 2.5 4 2.5s4 .2 4 2.5.3 2.5 5 2.5c4.3 0 5 .3 5 2s.7 2 5 2 5-.3 5-2 .7-2 4.5-2c4.1 0 4.5-.2 4.5-2.5s.4-2.5 4.5-2.5 4.5-.2 4.5-2.5.4-2.5 4.5-2.5c3.3 0 4.5-.4 4.5-1.5s1.2-1.5 4.5-1.5 4.5.4 4.5 1.5 1.1 1.5 4 1.5c3.6 0 4 .2 4 2.5s.4 2.5 4.5 2.5 4.5.2 4.5 2.5.4 2.5 4.5 2.5c3.8 0 4.5.3 4.5 2s.7 2 4.5 2 4.5-.3 4.5-2 .7-2 5-2c4.7 0 5-.2 5-2.5 0-2.4.2-2.5 7.5-2.5s7.5.1 7.5 2.5c0 2.3.3 2.5 5 2.5 4.3 0 5 .3 5 2s.7 2 4.5 2 4.5-.3 4.5-2 .7-2 4.5-2c4.1 0 4.5-.2 4.5-2.5s.4-2.5 4.5-2.5 4.5-.2 4.5-2.5.4-2.5 4-2.5c2.9 0 4-.4 4-1.5s1.2-1.5 4.5-1.5 4.5.4 4.5 1.5 1.2 1.5 4.5 1.5c4.1 0 4.5.2 4.5 2.5s.4 2.5 4.5 2.5 4.5.2 4.5 2.5.4 2.5 4.5 2.5c3.8 0 4.5.3 4.5 2s.7 2 5 2 5-.3 5-2 .7-2 5-2c4.7 0 5-.2 5-2.5s.4-2.5 4-2.5 4-.3 4-2.5c0-2.3.4-2.5 4.5-2.5 3.3 0 4.5-.4 4.5-1.5s1.2-1.5 4.5-1.5 4.5.4 4.5 1.5 1.2 1.5 4.5 1.5c4.1 0 4.5.2 4.5 2.5 0 2.2.4 2.5 4 2.5s4 .2 4 2.5.3 2.5 5 2.5c4.3 0 5 .3 5 2s.7 2 5 2 5-.3 5-2 .7-2 4.5-2c4.1 0 4.5-.2 4.5-2.5s.4-2.5 4.5-2.5 4.5-.2 4.5-2.5.4-2.5 4.4-2.5c4.5 0 5.5-1.2 5.6-6.3 0-1.6-17.8-1.7-360-1.7h-360v6.5zm35 0c0 1.1-1.2 1.5-5 1.5-4.7 0-5 .2-5 2.6 0 2.3-.3 2.5-3.7 2.2-3.1-.2-3.9-.7-4.1-2.6-.3-1.9-.9-2.2-5.3-2.2-3.7 0-4.9-.4-4.9-1.5 0-1.3 2.2-1.5 14-1.5s14 .2 14 1.5zm72 0c0 1.1-1.2 1.5-4.5 1.5-4.1 0-4.5.2-4.5 2.5s-.4 2.5-4.5 2.5-4.5-.2-4.5-2.5-.4-2.5-4.5-2.5c-3.3 0-4.5-.4-4.5-1.5 0-1.3 2.2-1.5 13.5-1.5s13.5.2 13.5 1.5zm72 0c0 1.1-1.2 1.5-4.5 1.5-4.1 0-4.5.2-4.5 2.5s-.4 2.5-4.5 2.5-4.5-.2-4.5-2.5-.4-2.5-4.5-2.5c-3.3 0-4.5-.4-4.5-1.5 0-1.3 2.2-1.5 13.5-1.5s13.5.2 13.5 1.5zm73 0c0 1.2-1.3 1.5-5.6 1.5-5.5 0-5.6.1-5.2 2.5.5 2.3.2 2.5-3.3 2.5s-3.9-.3-3.9-2.5c0-2.3-.3-2.5-5-2.5-3.8 0-5-.4-5-1.5 0-1.3 2.2-1.5 14-1.5s14 .2 14 1.5zm44 0c0 1.1-1.2 1.5-5 1.5-4.7 0-5 .2-5 2.5s-.4 2.5-4.1 2.5c-2.2 0-3.8-.4-3.5-.9 1.5-2.4-.7-4.1-5.5-4.1-3.7 0-4.9-.4-4.9-1.5 0-1.3 2.2-1.5 14-1.5s14 .2 14 1.5zm72 0c0 1.1-1.2 1.5-4.5 1.5-4.1 0-4.5.2-4.5 2.5s-.4 2.5-4.5 2.5-4.5-.2-4.5-2.5-.4-2.5-4.5-2.5c-3.3 0-4.5-.4-4.5-1.5 0-1.3 2.2-1.5 13.5-1.5s13.5.2 13.5 1.5zm72 0c0 1.1-1.2 1.5-4.5 1.5-4.1 0-4.5.2-4.5 2.5s-.4 2.5-4.5 2.5-4.5-.2-4.5-2.5-.4-2.5-4.5-2.5c-3.3 0-4.5-.4-4.5-1.5 0-1.3 2.2-1.5 13.5-1.5s13.5.2 13.5 1.5zm73 0c0 1.2-1.3 1.5-5.5 1.5-5.2 0-5.5.1-5.5 2.5 0 2.2-.4 2.5-3.5 2.5s-3.5-.3-3.5-2.5c0-2.3-.3-2.5-5-2.5-3.8 0-5-.4-5-1.5 0-1.3 2.2-1.5 14-1.5s14 .2 14 1.5zm43 0c0 1.1-1.2 1.5-5 1.5-4.7 0-5 .2-5 2.5s-.4 2.5-4 2.5c-2.7 0-4-.4-3.9-1.3.4-3.2-.2-3.7-5.1-3.7-3.8 0-5-.4-5-1.5 0-1.3 2.2-1.5 14-1.5s14 .2 14 1.5zm72 0c0 1.1-1.2 1.5-4.5 1.5-4.1 0-4.5.2-4.5 2.5s-.4 2.5-4.5 2.5-4.5-.2-4.5-2.5-.4-2.5-4.5-2.5c-3.3 0-4.5-.4-4.5-1.5 0-1.3 2.2-1.5 13.5-1.5s13.5.2 13.5 1.5zm72 0c0 1.1-1.2 1.5-4.5 1.5-4.1 0-4.5.2-4.5 2.5s-.4 2.5-4.5 2.5-4.5-.2-4.5-2.5-.4-2.5-4.5-2.5c-3.3 0-4.5-.4-4.5-1.5 0-1.3 2.2-1.5 13.5-1.5s13.5.2 13.5 1.5zm-648 9c0 2.2-.4 2.5-4 2.5-3.3 0-4 .3-4 2s-.7 2-4.5 2c-4.5 0-4.5 0-4.5 3.5s0 3.5 4.5 3.5c2.5 0 4.4.3 4.4.7-.4 2.6.4 3.3 4.1 3.3 3.6 0 4 .2 4 2.5s.4 2.5 4.5 2.5 4.5-.2 4.5-2.5.3-2.5 5-2.5c4.3 0 5-.3 5-2s.7-2 4.5-2c4.5 0 4.5 0 4.5-3.5s0-3.5-4.5-3.5c-3.8 0-4.5-.3-4.5-2s-.7-2-5-2c-4.7 0-5-.2-5-2.5s-.4-2.5-4.5-2.5-4.5.2-4.5 2.5zm9 9c0 2.3-.4 2.5-4.5 2.5s-4.5-.2-4.5-2.5.4-2.5 4.5-2.5 4.5.2 4.5 2.5z"/><use xlink:href="#C"/><path d="M196.261 77.524c0 2.3-.3 2.5-5 2.5-4.3 0-5 .3-5 2s-.7 2-4.5 2c-4.5 0-4.5 0-4.5 3.5s0 3.5 4.5 3.5c3.8 0 4.5.3 4.5 2s.7 2 5 2c4.7 0 5 .2 5 2.5s.4 2.5 4.5 2.5 4.5-.2 4.5-2.5.4-2.5 4.4-2.5c3.6 0 4.4-.3 4.2-1.8-.1-1.3.8-1.8 4.2-2 4.1-.3 4.2-.4 4.2-3.7s-.1-3.4-4.2-3.7c-3.4-.2-4.3-.7-4.2-2.1.2-1.4-.6-1.7-4.2-1.7-4 0-4.4-.2-4.4-2.5s-.4-2.5-4.5-2.5-4.5.2-4.5 2.5zm9 9c0 2.3-.4 2.5-4.5 2.5s-4.5-.2-4.5-2.5.4-2.5 4.5-2.5 4.5.2 4.5 2.5zm106-9c0 2.3-.4 2.5-4.4 2.5-3.6 0-4.4.3-4.2 1.7.1 1.4-.8 1.9-4.1 2.1-4.2.3-4.3.4-4.3 3.8s0 3.4 4.6 3.4c4.1 0 4.6.2 4.1 2s0 2 3.9 2c4 0 4.4.2 4.4 2.5s.4 2.5 4.5 2.5 4.5-.2 4.5-2.5.3-2.5 5-2.5c4.3 0 5-.3 5-2s.7-2 4.5-2c4.5 0 4.5 0 4.5-3.5s0-3.5-4.5-3.5c-3.8 0-4.5-.3-4.5-2s-.7-2-5-2c-4.7 0-5-.2-5-2.5s-.4-2.5-4.5-2.5-4.5.2-4.5 2.5zm9 8.9c0 2.1-.5 2.4-4.5 2.8-4.3.3-4.5.2-4.5-2.4s.3-2.8 4.5-2.8c4.1 0 4.5.2 4.5 2.4zm64-8.9c0 2.3-.4 2.5-4.5 2.5-3.8 0-4.5.3-4.5 2s-.7 2-4.5 2c-4.5 0-4.5 0-4.5 3.5s0 3.5 4.5 3.5c3.8 0 4.5.3 4.5 2s.7 2 4.5 2c4.1 0 4.5.2 4.5 2.5s.4 2.5 4.5 2.5 4.5-.2 4.5-2.5.4-2.5 4.5-2.5c3.8 0 4.5-.3 4.5-2s.7-2 4.5-2c4.5 0 4.5 0 4.5-3.5s0-3.5-4.5-3.5c-3.8 0-4.5-.3-4.5-2s-.7-2-4.5-2c-4.1 0-4.5-.2-4.5-2.5s-.4-2.5-4.5-2.5-4.5.2-4.5 2.5zm9 9c0 2.3-.4 2.5-4.5 2.5s-4.5-.2-4.5-2.5.4-2.5 4.5-2.5 4.5.2 4.5 2.5zm64-9c0 2.3-.3 2.5-5 2.5-4.3 0-5 .3-5 2s-.7 2-4.5 2c-4.5 0-4.5 0-4.5 3.5s0 3.5 4.5 3.5c3.8 0 4.5.3 4.5 2s.7 2 5 2c4.7 0 5 .2 5 2.5s.4 2.5 4.5 2.5 4.5-.2 4.5-2.5.4-2.5 4-2.5c3.7 0 4.5-.7 4.1-3.3 0-.4 1.9-.7 4.4-.7 4.5 0 4.5 0 4.5-3.5s0-3.5-4.5-3.5c-3.8 0-4.5-.3-4.5-2s-.7-2-4-2c-3.6 0-4-.3-4-2.5 0-2.3-.4-2.5-4.5-2.5s-4.5.2-4.5 2.5zm9 9c0 2.3-.4 2.5-4.5 2.5s-4.5-.2-4.5-2.5.4-2.5 4.5-2.5 4.5.2 4.5 2.5zm105-9c0 2.2-.4 2.5-4 2.5-3.3 0-4 .3-4 2s-.7 2-4.5 2c-4.5 0-4.5 0-4.5 3.5s0 3.5 4.5 3.5c3.8 0 4.5.3 4.5 2s.7 2 4 2c3.6 0 4 .2 4 2.5s.4 2.5 4.5 2.5 4.5-.2 4.5-2.5.3-2.5 5-2.5c4.3 0 5-.3 5-1.9s.8-2 4.3-2.3c3.9-.3 4.2-.5 4.5-3.6.3-3.2.3-3.2-4.2-3.2-3.9 0-4.6-.3-4.6-2s-.7-2-5-2c-4.7 0-5-.2-5-2.5s-.4-2.5-4.5-2.5-4.5.2-4.5 2.5zm9 8.9c0 2.1-.5 2.4-4.5 2.8-4.3.3-4.5.2-4.5-2.4s.3-2.8 4.5-2.8c4.1 0 4.5.2 4.5 2.4zm64-8.9c0 2.3-.4 2.5-4.5 2.5-3.8 0-4.5.3-4.5 2s-.7 2-4.5 2c-4.5 0-4.5 0-4.5 3.5s0 3.5 4.5 3.5c3.8 0 4.5.3 4.5 2s.7 2 4.5 2c4.1 0 4.5.2 4.5 2.5s.4 2.5 4.5 2.5 4.5-.2 4.5-2.5.4-2.5 4.5-2.5c3.8 0 4.5-.3 4.5-2s.7-2 4.5-2c4.5 0 4.5 0 4.5-3.5s0-3.5-4.5-3.5c-3.8 0-4.5-.3-4.5-2s-.7-2-4.5-2c-4.1 0-4.5-.2-4.5-2.5s-.4-2.5-4.5-2.5-4.5.2-4.5 2.5zm9 9.3c0 2.6-.2 2.7-4.5 2.4-4-.4-4.5-.7-4.5-2.8 0-2.2.4-2.4 4.5-2.4 4.2 0 4.5.2 4.5 2.8zm64-9.3c0 2.3-.3 2.5-5 2.5-4.3 0-5 .3-5 2s-.7 2-4.5 2c-4.5 0-4.5 0-4.5 3.5s0 3.5 4.5 3.5c3.8 0 4.5.3 4.5 2s.7 2 4.9 2c4.7 0 5 .2 5.3 2.7.2 1.6.4-2.9.5-10 0-7-.1-12.7-.3-12.7s-.4 1.1-.4 2.5zm-719 10c0 3.3.2 3.5 3.5 3.5s3.5-.2 3.5-3.5-.2-3.5-3.5-3.5-3.5.2-3.5 3.5zm252 0v3.5h8 8v-3.5-3.5h-8-8v3.5zm261 0v3.5h7.5 7.5v-3.5-3.5h-7.5-7.5v3.5z"/><path d="M15.261 92.024c0 2.9-.1 3-5 3-4.7 0-5 .2-5 2.5 0 2.2-.4 2.5-3.5 2.5h-3.5v6.5 6.5h360l360-1.8c-.1-5-1.1-6.2-5.6-6.2-4 0-4.4-.2-4.4-2.5s-.4-2.5-4.5-2.5-4.5-.2-4.5-2.5-.4-2.5-4.5-2.5c-4.3 0-4.5-.1-4.5-3s-.1-3-5-3-5 .1-5 3-.1 3-5 3c-4.7 0-5 .2-5 2.5 0 2.2-.4 2.5-4 2.5s-4 .2-4 2.5-.4 2.5-4.5 2.5c-3.3 0-4.5.4-4.5 1.5s-1.2 1.5-4.5 1.5-4.5-.4-4.5-1.5-1.2-1.5-4.5-1.5c-4.1 0-4.5-.2-4.5-2.5s-.4-2.5-4-2.5-4-.3-4-2.5c0-2.3-.3-2.5-5-2.5-4.9 0-5-.1-5-3s-.1-3-5-3-5 .1-5 3-.2 3-4.5 3c-4.1 0-4.5.2-4.5 2.5s-.4 2.5-4.5 2.5-4.5.2-4.5 2.5-.4 2.5-4.5 2.5c-3.3 0-4.5.4-4.5 1.5s-1.2 1.5-4.5 1.5-4.5-.4-4.5-1.5-1.1-1.5-4-1.5c-3.6 0-4-.3-4-2.5 0-2.3-.4-2.5-4.5-2.5s-4.5-.2-4.5-2.5-.4-2.5-4.5-2.5c-4.3 0-4.5-.1-4.5-3s-.2-3-4.5-3-4.5.1-4.5 3-.1 3-5 3c-4.7 0-5 .2-5 2.5 0 2.4-.2 2.5-7.5 2.5s-7.5-.1-7.5-2.5c0-2.3-.3-2.5-5-2.5-4.9 0-5-.1-5-3s-.2-3-4.5-3-4.5.1-4.5 3-.2 3-4.5 3c-4.1 0-4.5.2-4.5 2.5s-.4 2.5-4.5 2.5-4.5.2-4.5 2.5c0 2.2-.4 2.5-4 2.5-2.9 0-4 .4-4 1.5s-1.2 1.5-4.5 1.5-4.5-.4-4.5-1.5-1.2-1.5-4.5-1.5c-4.1 0-4.5-.2-4.5-2.5s-.4-2.5-4.5-2.5-4.5-.2-4.5-2.5-.4-2.5-4.5-2.5c-4.3 0-4.5-.1-4.5-3s-.1-3-5-3-5 .1-5 3-.1 3-5 3c-4.7 0-5 .2-5 2.5 0 2.2-.4 2.5-4 2.5s-4 .2-4 2.5-.4 2.5-4.5 2.5c-3.3 0-4.5.4-4.5 1.5s-1.2 1.5-4.5 1.5-4.5-.4-4.5-1.5-1.2-1.5-4.5-1.5c-4.1 0-4.5-.2-4.5-2.5s-.4-2.5-4-2.5-4-.3-4-2.5c0-2.3-.3-2.5-5-2.5-4.9 0-5-.1-5-3s-.1-3-5-3-5 .1-5 3-.2 3-4.5 3c-4.1 0-4.5.2-4.5 2.5s-.4 2.5-4.5 2.5-4.5.2-4.5 2.5-.4 2.5-4.5 2.5c-3.3 0-4.5.4-4.5 1.5s-1.2 1.5-4.5 1.5-4.5-.4-4.5-1.5-1.1-1.5-4-1.5c-3.6 0-4-.3-4-2.5 0-2.3-.4-2.5-4.5-2.5s-4.5-.2-4.5-2.5-.4-2.5-4.5-2.5c-4.3 0-4.5-.1-4.5-3s-.2-3-4.5-3-4.5.1-4.5 3-.1 3-5 3c-4.7 0-5 .2-5 2.5 0 2.5-.1 2.5-8 2.5s-8 0-8-2.5c0-2.3-.3-2.5-5-2.5-4.9 0-5-.1-5-3s-.2-3-4.5-3-4.5.1-4.5 3-.2 3-4.5 3c-4.1 0-4.5.2-4.5 2.5s-.4 2.5-4.5 2.5-4.5.2-4.5 2.5c0 2.2-.4 2.5-4 2.5-2.9 0-4 .4-4 1.5s-1.2 1.5-4.5 1.5-4.5-.4-4.5-1.5-1.2-1.5-4.5-1.5c-4.1 0-4.5-.2-4.5-2.5s-.4-2.5-4.5-2.5-4.5-.2-4.5-2.5-.4-2.5-4.5-2.5c-4.3 0-4.5-.1-4.5-3s-.1-3-5-3-5 .1-5 3-.1 3-5 3c-4.7 0-5 .2-5 2.5 0 2.2-.4 2.5-4 2.5s-4 .2-4 2.5-.4 2.5-4.5 2.5c-3.3 0-4.5.4-4.5 1.5s-1.2 1.5-4.5 1.5-4.5-.4-4.5-1.5-1.2-1.5-4.5-1.5c-4.1 0-4.5-.2-4.5-2.5s-.4-2.5-4-2.5-4-.3-4-2.5c0-2.3-.3-2.5-5-2.5-4.9 0-5-.1-5-3s-.1-3-5-3-5 .1-5 3-.2 3-4.5 3c-4.1 0-4.5.2-4.5 2.5s-.4 2.5-4.5 2.5-4.5.2-4.5 2.5-.4 2.5-4.5 2.5c-3.3 0-4.5.4-4.5 1.5s-1.2 1.5-4.5 1.5-4.5-.4-4.5-1.5-1.1-1.5-4-1.5c-3.6 0-4-.3-4-2.5 0-2.3-.4-2.5-4.5-2.5s-4.5-.2-4.5-2.5-.4-2.5-4.5-2.5c-4.3 0-4.5-.1-4.5-3s-.2-3-4.5-3-4.5.1-4.5 3zm8 10.5c0 2.3.3 2.5 5 2.5 3.8 0 5 .4 5 1.5 0 1.3-2.2 1.5-14 1.5-11.6 0-14-.3-14-1.4s1.5-1.6 5.3-1.8c4.5-.3 5.2-.6 5.5-2.6.3-1.8 1-2.2 3.8-2.2 3 0 3.4.3 3.4 2.5zm73 0c0 2.3.4 2.5 4.5 2.5 3.3 0 4.5.4 4.5 1.5 0 1.3-2.2 1.5-13.5 1.5s-13.5-.2-13.5-1.5c0-1.1 1.2-1.5 4.5-1.5 4.1 0 4.5-.2 4.5-2.5s.4-2.5 4.5-2.5 4.5.2 4.5 2.5zm72 0c0 2.3.4 2.5 4.5 2.5 3.3 0 4.5.4 4.5 1.5 0 1.3-2.2 1.5-13.5 1.5s-13.5-.2-13.5-1.5c0-1.1 1.2-1.5 4.5-1.5 4.1 0 4.5-.2 4.5-2.5s.4-2.5 4.5-2.5 4.5.2 4.5 2.5zm71.2 0c-.4 2.4-.3 2.5 5.2 2.5 4.3 0 5.6.3 5.6 1.5 0 1.3-2.2 1.5-14 1.5s-14-.2-14-1.5c0-1.1 1.2-1.5 5-1.5 4.7 0 5-.2 5-2.5 0-2.2.4-2.5 3.9-2.5s3.8.2 3.3 2.5zm44.8 0c0 2.3.3 2.5 5 2.5 3.8 0 5 .4 5 1.5 0 1.3-2.2 1.5-14 1.5-11.6 0-14-.3-14-1.4s1.5-1.6 5.3-1.8c4.7-.3 5.2-.5 5.1-2.6 0-1.9.4-2.2 3.8-2.2s3.8.3 3.8 2.5zm73 0c0 2.3.4 2.5 4.5 2.5 3.3 0 4.5.4 4.5 1.5 0 1.3-2.2 1.5-13.5 1.5s-13.5-.2-13.5-1.5c0-1.1 1.2-1.5 4.5-1.5 4.1 0 4.5-.2 4.5-2.5s.4-2.5 4.5-2.5 4.5.2 4.5 2.5zm72 0c0 2.3.4 2.5 4.5 2.5 3.3 0 4.5.4 4.5 1.5 0 1.3-2.2 1.5-13.5 1.5s-13.5-.2-13.5-1.5c0-1.1 1.2-1.5 4.5-1.5 4.1 0 4.5-.2 4.5-2.5s.4-2.5 4.5-2.5 4.5.2 4.5 2.5zm71.2-.3c.3 2 1 2.3 5.6 2.6 3.7.2 5.2.7 5.2 1.8s-2.4 1.4-14 1.4c-11.8 0-14-.2-14-1.5 0-1.1 1.2-1.5 5-1.5 4.7 0 5-.2 5-2.5 0-2.2.4-2.5 3.4-2.5 2.8 0 3.5.4 3.8 2.2zm43.8.3c0 2.3.3 2.5 5 2.5 3.8 0 5 .4 5 1.5 0 1.3-2.2 1.5-14 1.5s-14-.2-14-1.5c0-1.2 1.3-1.5 5.6-1.5 5.5 0 5.6-.1 5.2-2.5-.5-2.3-.2-2.5 3.3-2.5s3.9.3 3.9 2.5zm73 0c0 2.3.4 2.5 4.5 2.5 3.3 0 4.5.4 4.5 1.5 0 1.3-2.2 1.5-13.5 1.5s-13.5-.2-13.5-1.5c0-1.1 1.2-1.5 4.5-1.5 4.1 0 4.5-.2 4.5-2.5s.4-2.5 4.5-2.5 4.5.2 4.5 2.5zm72 0c0 2.3.4 2.5 4.5 2.5 3.3 0 4.5.4 4.5 1.5 0 1.3-2.2 1.5-13.5 1.5s-13.5-.2-13.5-1.5c0-1.1 1.2-1.5 4.5-1.5 4.1 0 4.5-.2 4.5-2.5s.4-2.5 4.5-2.5 4.5.2 4.5 2.5z"/></g><defs ><path id="C" d="M123.261 77.524c0 2.3-.4 2.5-4.5 2.5-3.8 0-4.5.3-4.5 2s-.7 2-4.5 2c-4.5 0-4.5 0-4.5 3.5s0 3.5 4.5 3.5c3.8 0 4.5.3 4.5 2s.7 2 4.5 2c4.1 0 4.5.2 4.5 2.5s.4 2.5 4.5 2.5 4.5-.2 4.5-2.5.4-2.5 4.5-2.5c3.8 0 4.5-.3 4.5-2s.7-2 4.5-2c4.5 0 4.5 0 4.5-3.5s0-3.5-4.5-3.5c-3.8 0-4.5-.3-4.5-2s-.7-2-4.5-2c-4.1 0-4.5-.2-4.5-2.5s-.4-2.5-4.5-2.5-4.5.2-4.5 2.5zm9 9.3c0 2.6-.2 2.7-4.5 2.4-4-.4-4.5-.7-4.5-2.8 0-2.2.4-2.4 4.5-2.4 4.2 0 4.5.2 4.5 2.8z"/></defs></svg>