<?xml version="1.0" encoding="UTF-8" standalone="no"?>
<!DOCTYPE svg PUBLIC "-//W3C//DTD SVG 1.1//EN" "http://www.w3.org/Graphics/SVG/1.1/DTD/svg11.dtd">
<!-- Created with Vectornator (http://vectornator.io/) -->
<svg height="100%" stroke-miterlimit="10" style="fill-rule:nonzero;clip-rule:evenodd;stroke-linecap:round;stroke-linejoin:round;" version="1.1" viewBox="0 0 720 180" width="100%" xml:space="preserve" xmlns="http://www.w3.org/2000/svg" xmlns:vectornator="http://vectornator.io" xmlns:xlink="http://www.w3.org/1999/xlink">
<defs/>
<clipPath id="ArtboardFrame">
<rect height="180" width="720" x="0" y="0"/>
</clipPath>
<g clip-path="url(#ArtboardFrame)" id="Untitled" vectornator:layerName="Untitled">
<g opacity="1">
<path d="M-1.73874 68.5242L-1.73874 75.0242L1.76126 75.0242C4.86126 75.0242 5.26126 75.3242 5.26126 77.5242C5.26126 79.8242 5.56126 80.0242 10.2613 80.0242C14.5613 80.0242 15.2613 80.3242 15.2613 82.0242C15.2613 83.7242 15.9613 84.0242 19.7613 84.0242C23.5613 84.0242 24.2613 83.7242 24.2613 82.0242C24.2613 80.3242 24.9613 80.0242 28.7613 80.0242C32.8613 80.0242 33.2613 79.8242 33.2613 77.5242C33.2613 75.2242 33.6613 75.0242 37.7613 75.0242C41.8613 75.0242 42.2613 74.8242 42.2613 72.5242C42.2613 70.2242 42.6613 70.0242 46.2613 70.0242C49.1613 70.0242 50.2613 69.6242 50.2613 68.5242C50.2613 67.4242 51.4613 67.0242 54.7613 67.0242C58.0613 67.0242 59.2613 67.4242 59.2613 68.5242C59.2613 69.6242 60.4613 70.0242 63.7613 70.0242C67.8613 70.0242 68.2613 70.2242 68.2613 72.5242C68.2613 74.8242 68.6613 75.0242 72.7613 75.0242C76.8613 75.0242 77.2613 75.2242 77.2613 77.5242C77.2613 79.8242 77.6613 80.0242 81.7613 80.0242C85.5613 80.0242 86.2613 80.3242 86.2613 82.0242C86.2613 83.7242 86.9613 84.0242 91.2613 84.0242C95.5613 84.0242 96.2613 83.7242 96.2613 82.0242C96.2613 80.3242 96.9613 80.0242 101.261 80.0242C105.961 80.0242 106.261 79.8242 106.261 77.5242C106.261 75.2242 106.661 75.0242 110.261 75.0242C113.861 75.0242 114.261 74.7242 114.261 72.5242C114.261 70.2242 114.661 70.0242 118.761 70.0242C122.061 70.0242 123.261 69.6242 123.261 68.5242C123.261 67.4242 124.461 67.0242 127.761 67.0242C131.061 67.0242 132.261 67.4242 132.261 68.5242C132.261 69.6242 133.461 70.0242 136.761 70.0242C140.861 70.0242 141.261 70.2242 141.261 72.5242C141.261 74.8242 141.661 75.0242 145.661 75.0242C149.761 75.0242 149.961 75.1242 149.461 77.5242C149.061 79.9242 149.261 80.0242 154.161 80.0242C158.561 80.0242 159.261 80.3242 159.261 82.0242C159.261 83.7242 159.961 84.0242 164.261 84.0242C168.561 84.0242 169.261 83.7242 169.261 82.0242C169.261 80.3242 169.961 80.0242 173.761 80.0242C177.861 80.0242 178.261 79.8242 178.261 77.5242C178.261 75.2242 178.661 75.0242 182.761 75.0242C186.861 75.0242 187.261 74.8242 187.261 72.5242C187.261 70.2242 187.661 70.0242 191.761 70.0242C195.061 70.0242 196.261 69.6242 196.261 68.5242C196.261 67.4242 197.461 67.0242 200.761 67.0242C204.061 67.0242 205.261 67.4242 205.261 68.5242C205.261 69.6242 206.361 70.0242 209.261 70.0242C212.861 70.0242 213.261 70.2242 213.261 72.5242C213.261 74.8242 213.661 75.0242 217.761 75.0242C221.861 75.0242 222.261 75.2242 222.261 77.5242C222.261 79.8242 222.661 80.0242 226.761 80.0242C230.561 80.0242 231.261 80.3242 231.261 82.0242C231.261 83.7242 231.961 84.0242 235.761 84.0242C239.561 84.0242 240.261 83.7242 240.261 82.0242C240.261 80.3242 240.961 80.0242 245.261 80.0242C249.961 80.0242 250.261 79.8242 250.261 77.5242C250.261 75.0242 250.361 75.0242 258.261 75.0242C266.161 75.0242 266.261 75.0242 266.261 77.5242C266.261 79.8242 266.561 80.0242 271.261 80.0242C275.561 80.0242 276.261 80.3242 276.261 82.0242C276.261 83.7242 276.961 84.0242 280.761 84.0242C284.561 84.0242 285.261 83.7242 285.261 82.0242C285.261 80.3242 285.961 80.0242 289.761 80.0242C293.861 80.0242 294.261 79.8242 294.261 77.5242C294.261 75.2242 294.661 75.0242 298.761 75.0242C302.861 75.0242 303.261 74.8242 303.261 72.5242C303.261 70.2242 303.661 70.0242 307.261 70.0242C310.161 70.0242 311.261 69.6242 311.261 68.5242C311.261 67.4242 312.461 67.0242 315.761 67.0242C319.061 67.0242 320.261 67.4242 320.261 68.5242C320.261 69.6242 321.461 70.0242 324.761 70.0242C328.861 70.0242 329.261 70.2242 329.261 72.5242C329.261 74.8242 329.661 75.0242 333.761 75.0242C337.861 75.0242 338.261 75.2242 338.261 77.5242C338.261 79.8242 338.661 80.0242 342.761 80.0242C346.561 80.0242 347.261 80.3242 347.261 82.0242C347.261 83.7242 347.961 84.0242 352.261 84.0242C356.561 84.0242 357.261 83.7242 357.261 82.0242C357.261 80.3242 357.961 80.0242 362.361 80.0242C367.261 80.0242 367.461 79.9242 367.061 77.5242C366.561 75.1242 366.761 75.0242 370.861 75.0242C374.861 75.0242 375.261 74.8242 375.261 72.5242C375.261 70.2242 375.661 70.0242 379.761 70.0242C383.061 70.0242 384.261 69.6242 384.261 68.5242C384.261 67.4242 385.461 67.0242 388.761 67.0242C392.061 67.0242 393.261 67.4242 393.261 68.5242C393.261 69.6242 394.461 70.0242 397.761 70.0242C401.861 70.0242 402.261 70.2242 402.261 72.5242C402.261 74.7242 402.661 75.0242 406.261 75.0242C409.861 75.0242 410.261 75.2242 410.261 77.5242C410.261 79.8242 410.561 80.0242 415.261 80.0242C419.561 80.0242 420.261 80.3242 420.261 82.0242C420.261 83.7242 420.961 84.0242 425.261 84.0242C429.561 84.0242 430.261 83.7242 430.261 82.0242C430.261 80.3242 430.961 80.0242 434.761 80.0242C438.861 80.0242 439.261 79.8242 439.261 77.5242C439.261 75.2242 439.661 75.0242 443.761 75.0242C447.861 75.0242 448.261 74.8242 448.261 72.5242C448.261 70.2242 448.661 70.0242 452.761 70.0242C456.061 70.0242 457.261 69.6242 457.261 68.5242C457.261 67.4242 458.461 67.0242 461.761 67.0242C465.061 67.0242 466.261 67.4242 466.261 68.5242C466.261 69.6242 467.361 70.0242 470.261 70.0242C473.861 70.0242 474.261 70.2242 474.261 72.5242C474.261 74.8242 474.661 75.0242 478.761 75.0242C482.861 75.0242 483.261 75.2242 483.261 77.5242C483.261 79.8242 483.661 80.0242 487.761 80.0242C491.561 80.0242 492.261 80.3242 492.261 82.0242C492.261 83.7242 492.961 84.0242 496.761 84.0242C500.561 84.0242 501.261 83.7242 501.261 82.0242C501.261 80.3242 501.961 80.0242 506.261 80.0242C510.961 80.0242 511.261 79.8242 511.261 77.5242C511.261 75.1242 511.461 75.0242 518.761 75.0242C526.061 75.0242 526.261 75.1242 526.261 77.5242C526.261 79.8242 526.561 80.0242 531.261 80.0242C535.561 80.0242 536.261 80.3242 536.261 82.0242C536.261 83.7242 536.961 84.0242 540.761 84.0242C544.561 84.0242 545.261 83.7242 545.261 82.0242C545.261 80.3242 545.961 80.0242 549.761 80.0242C553.861 80.0242 554.261 79.8242 554.261 77.5242C554.261 75.2242 554.661 75.0242 558.761 75.0242C562.861 75.0242 563.261 74.8242 563.261 72.5242C563.261 70.2242 563.661 70.0242 567.261 70.0242C570.161 70.0242 571.261 69.6242 571.261 68.5242C571.261 67.4242 572.461 67.0242 575.761 67.0242C579.061 67.0242 580.261 67.4242 580.261 68.5242C580.261 69.6242 581.461 70.0242 584.761 70.0242C588.861 70.0242 589.261 70.2242 589.261 72.5242C589.261 74.8242 589.661 75.0242 593.761 75.0242C597.861 75.0242 598.261 75.2242 598.261 77.5242C598.261 79.8242 598.661 80.0242 602.761 80.0242C606.561 80.0242 607.261 80.3242 607.261 82.0242C607.261 83.7242 607.961 84.0242 612.261 84.0242C616.561 84.0242 617.261 83.7242 617.261 82.0242C617.261 80.3242 617.961 80.0242 622.261 80.0242C626.961 80.0242 627.261 79.8242 627.261 77.5242C627.261 75.2242 627.661 75.0242 631.261 75.0242C634.861 75.0242 635.261 74.7242 635.261 72.5242C635.261 70.2242 635.661 70.0242 639.761 70.0242C643.061 70.0242 644.261 69.6242 644.261 68.5242C644.261 67.4242 645.461 67.0242 648.761 67.0242C652.061 67.0242 653.261 67.4242 653.261 68.5242C653.261 69.6242 654.461 70.0242 657.761 70.0242C661.861 70.0242 662.261 70.2242 662.261 72.5242C662.261 74.7242 662.661 75.0242 666.261 75.0242C669.861 75.0242 670.261 75.2242 670.261 77.5242C670.261 79.8242 670.561 80.0242 675.261 80.0242C679.561 80.0242 680.261 80.3242 680.261 82.0242C680.261 83.7242 680.961 84.0242 685.261 84.0242C689.561 84.0242 690.261 83.7242 690.261 82.0242C690.261 80.3242 690.961 80.0242 694.761 80.0242C698.861 80.0242 699.261 79.8242 699.261 77.5242C699.261 75.2242 699.661 75.0242 703.761 75.0242C707.861 75.0242 708.261 74.8242 708.261 72.5242C708.261 70.2242 708.661 70.0242 712.661 70.0242C717.161 70.0242 718.161 68.8242 718.261 63.7242C718.261 62.1242 700.461 62.0242 358.261 62.0242L-1.73874 62.0242L-1.73874 68.5242ZM33.2613 68.5242C33.2613 69.6242 32.0613 70.0242 28.2613 70.0242C23.5613 70.0242 23.2613 70.2242 23.2613 72.6242C23.2613 74.9242 22.9613 75.1242 19.5613 74.8242C16.4613 74.6242 15.6613 74.1242 15.4613 72.2242C15.1613 70.3242 14.5613 70.0242 10.1613 70.0242C6.46126 70.0242 5.26126 69.6242 5.26126 68.5242C5.26126 67.2242 7.46126 67.0242 19.2613 67.0242C31.0613 67.0242 33.2613 67.2242 33.2613 68.5242ZM105.261 68.5242C105.261 69.6242 104.061 70.0242 100.761 70.0242C96.6613 70.0242 96.2613 70.2242 96.2613 72.5242C96.2613 74.8242 95.8613 75.0242 91.7613 75.0242C87.6613 75.0242 87.2613 74.8242 87.2613 72.5242C87.2613 70.2242 86.8613 70.0242 82.7613 70.0242C79.4613 70.0242 78.2613 69.6242 78.2613 68.5242C78.2613 67.2242 80.4613 67.0242 91.7613 67.0242C103.061 67.0242 105.261 67.2242 105.261 68.5242ZM177.261 68.5242C177.261 69.6242 176.061 70.0242 172.761 70.0242C168.661 70.0242 168.261 70.2242 168.261 72.5242C168.261 74.8242 167.861 75.0242 163.761 75.0242C159.661 75.0242 159.261 74.8242 159.261 72.5242C159.261 70.2242 158.861 70.0242 154.761 70.0242C151.461 70.0242 150.261 69.6242 150.261 68.5242C150.261 67.2242 152.461 67.0242 163.761 67.0242C175.061 67.0242 177.261 67.2242 177.261 68.5242ZM250.261 68.5242C250.261 69.7242 248.961 70.0242 244.661 70.0242C239.161 70.0242 239.061 70.1242 239.461 72.5242C239.961 74.8242 239.661 75.0242 236.161 75.0242C232.661 75.0242 232.261 74.7242 232.261 72.5242C232.261 70.2242 231.961 70.0242 227.261 70.0242C223.461 70.0242 222.261 69.6242 222.261 68.5242C222.261 67.2242 224.461 67.0242 236.261 67.0242C248.061 67.0242 250.261 67.2242 250.261 68.5242ZM294.261 68.5242C294.261 69.6242 293.061 70.0242 289.261 70.0242C284.561 70.0242 284.261 70.2242 284.261 72.5242C284.261 74.8242 283.861 75.0242 280.161 75.0242C277.961 75.0242 276.361 74.6242 276.661 74.1242C278.161 71.7242 275.961 70.0242 271.161 70.0242C267.461 70.0242 266.261 69.6242 266.261 68.5242C266.261 67.2242 268.461 67.0242 280.261 67.0242C292.061 67.0242 294.261 67.2242 294.261 68.5242ZM366.261 68.5242C366.261 69.6242 365.061 70.0242 361.761 70.0242C357.661 70.0242 357.261 70.2242 357.261 72.5242C357.261 74.8242 356.861 75.0242 352.761 75.0242C348.661 75.0242 348.261 74.8242 348.261 72.5242C348.261 70.2242 347.861 70.0242 343.761 70.0242C340.461 70.0242 339.261 69.6242 339.261 68.5242C339.261 67.2242 341.461 67.0242 352.761 67.0242C364.061 67.0242 366.261 67.2242 366.261 68.5242ZM438.261 68.5242C438.261 69.6242 437.061 70.0242 433.761 70.0242C429.661 70.0242 429.261 70.2242 429.261 72.5242C429.261 74.8242 428.861 75.0242 424.761 75.0242C420.661 75.0242 420.261 74.8242 420.261 72.5242C420.261 70.2242 419.861 70.0242 415.761 70.0242C412.461 70.0242 411.261 69.6242 411.261 68.5242C411.261 67.2242 413.461 67.0242 424.761 67.0242C436.061 67.0242 438.261 67.2242 438.261 68.5242ZM511.261 68.5242C511.261 69.7242 509.961 70.0242 505.761 70.0242C500.561 70.0242 500.261 70.1242 500.261 72.5242C500.261 74.7242 499.861 75.0242 496.761 75.0242C493.661 75.0242 493.261 74.7242 493.261 72.5242C493.261 70.2242 492.961 70.0242 488.261 70.0242C484.461 70.0242 483.261 69.6242 483.261 68.5242C483.261 67.2242 485.461 67.0242 497.261 67.0242C509.061 67.0242 511.261 67.2242 511.261 68.5242ZM554.261 68.5242C554.261 69.6242 553.061 70.0242 549.261 70.0242C544.561 70.0242 544.261 70.2242 544.261 72.5242C544.261 74.8242 543.861 75.0242 540.261 75.0242C537.561 75.0242 536.261 74.6242 536.361 73.7242C536.761 70.5242 536.161 70.0242 531.261 70.0242C527.461 70.0242 526.261 69.6242 526.261 68.5242C526.261 67.2242 528.461 67.0242 540.261 67.0242C552.061 67.0242 554.261 67.2242 554.261 68.5242ZM626.261 68.5242C626.261 69.6242 625.061 70.0242 621.761 70.0242C617.661 70.0242 617.261 70.2242 617.261 72.5242C617.261 74.8242 616.861 75.0242 612.761 75.0242C608.661 75.0242 608.261 74.8242 608.261 72.5242C608.261 70.2242 607.861 70.0242 603.761 70.0242C600.461 70.0242 599.261 69.6242 599.261 68.5242C599.261 67.2242 601.461 67.0242 612.761 67.0242C624.061 67.0242 626.261 67.2242 626.261 68.5242ZM698.261 68.5242C698.261 69.6242 697.061 70.0242 693.761 70.0242C689.661 70.0242 689.261 70.2242 689.261 72.5242C689.261 74.8242 688.861 75.0242 684.761 75.0242C680.661 75.0242 680.261 74.8242 680.261 72.5242C680.261 70.2242 679.861 70.0242 675.761 70.0242C672.461 70.0242 671.261 69.6242 671.261 68.5242C671.261 67.2242 673.461 67.0242 684.761 67.0242C696.061 67.0242 698.261 67.2242 698.261 68.5242Z" fill="#000000" fill-rule="nonzero" opacity="1" stroke="none"/>
<path d="M50.2613 77.5242C50.2613 79.7242 49.8613 80.0242 46.2613 80.0242C42.9613 80.0242 42.2613 80.3242 42.2613 82.0242C42.2613 83.7242 41.5613 84.0242 37.7613 84.0242C33.2613 84.0242 33.2613 84.0242 33.2613 87.5242C33.2613 91.0242 33.2613 91.0242 37.7613 91.0242C40.2613 91.0242 42.1613 91.3242 42.1613 91.7242C41.7613 94.3242 42.5613 95.0242 46.2613 95.0242C49.8613 95.0242 50.2613 95.2242 50.2613 97.5242C50.2613 99.8242 50.6613 100.024 54.7613 100.024C58.8613 100.024 59.2613 99.8242 59.2613 97.5242C59.2613 95.2242 59.5613 95.0242 64.2613 95.0242C68.5613 95.0242 69.2613 94.7242 69.2613 93.0242C69.2613 91.3242 69.9613 91.0242 73.7613 91.0242C78.2613 91.0242 78.2613 91.0242 78.2613 87.5242C78.2613 84.0242 78.2613 84.0242 73.7613 84.0242C69.9613 84.0242 69.2613 83.7242 69.2613 82.0242C69.2613 80.3242 68.5613 80.0242 64.2613 80.0242C59.5613 80.0242 59.2613 79.8242 59.2613 77.5242C59.2613 75.2242 58.8613 75.0242 54.7613 75.0242C50.6613 75.0242 50.2613 75.2242 50.2613 77.5242ZM59.2613 86.5242C59.2613 88.8242 58.8613 89.0242 54.7613 89.0242C50.6613 89.0242 50.2613 88.8242 50.2613 86.5242C50.2613 84.2242 50.6613 84.0242 54.7613 84.0242C58.8613 84.0242 59.2613 84.2242 59.2613 86.5242Z" fill="#000000" fill-rule="nonzero" opacity="1" stroke="none"/>
<path d="M123.261 77.5242C123.261 79.8242 122.861 80.0242 118.761 80.0242C114.961 80.0242 114.261 80.3242 114.261 82.0242C114.261 83.7242 113.561 84.0242 109.761 84.0242C105.261 84.0242 105.261 84.0242 105.261 87.5242C105.261 91.0242 105.261 91.0242 109.761 91.0242C113.561 91.0242 114.261 91.3242 114.261 93.0242C114.261 94.7242 114.961 95.0242 118.761 95.0242C122.861 95.0242 123.261 95.2242 123.261 97.5242C123.261 99.8242 123.661 100.024 127.761 100.024C131.861 100.024 132.261 99.8242 132.261 97.5242C132.261 95.2242 132.661 95.0242 136.761 95.0242C140.561 95.0242 141.261 94.7242 141.261 93.0242C141.261 91.3242 141.961 91.0242 145.761 91.0242C150.261 91.0242 150.261 91.0242 150.261 87.5242C150.261 84.0242 150.261 84.0242 145.761 84.0242C141.961 84.0242 141.261 83.7242 141.261 82.0242C141.261 80.3242 140.561 80.0242 136.761 80.0242C132.661 80.0242 132.261 79.8242 132.261 77.5242C132.261 75.2242 131.861 75.0242 127.761 75.0242C123.661 75.0242 123.261 75.2242 123.261 77.5242ZM132.261 86.8242C132.261 89.4242 132.061 89.5242 127.761 89.2242C123.761 88.8242 123.261 88.5242 123.261 86.4242C123.261 84.2242 123.661 84.0242 127.761 84.0242C131.961 84.0242 132.261 84.2242 132.261 86.8242Z" fill="#000000" fill-rule="nonzero" opacity="1" stroke="none"/>
<path d="M196.261 77.5242C196.261 79.8242 195.961 80.0242 191.261 80.0242C186.961 80.0242 186.261 80.3242 186.261 82.0242C186.261 83.7242 185.561 84.0242 181.761 84.0242C177.261 84.0242 177.261 84.0242 177.261 87.5242C177.261 91.0242 177.261 91.0242 181.761 91.0242C185.561 91.0242 186.261 91.3242 186.261 93.0242C186.261 94.7242 186.961 95.0242 191.261 95.0242C195.961 95.0242 196.261 95.2242 196.261 97.5242C196.261 99.8242 196.661 100.024 200.761 100.024C204.861 100.024 205.261 99.8242 205.261 97.5242C205.261 95.2242 205.661 95.0242 209.661 95.0242C213.261 95.0242 214.061 94.7242 213.861 93.2242C213.761 91.9242 214.661 91.4242 218.061 91.2242C222.161 90.9242 222.261 90.8242 222.261 87.5242C222.261 84.2242 222.161 84.1242 218.061 83.8242C214.661 83.6242 213.761 83.1242 213.861 81.7242C214.061 80.3242 213.261 80.0242 209.661 80.0242C205.661 80.0242 205.261 79.8242 205.261 77.5242C205.261 75.2242 204.861 75.0242 200.761 75.0242C196.661 75.0242 196.261 75.2242 196.261 77.5242ZM205.261 86.5242C205.261 88.8242 204.861 89.0242 200.761 89.0242C196.661 89.0242 196.261 88.8242 196.261 86.5242C196.261 84.2242 196.661 84.0242 200.761 84.0242C204.861 84.0242 205.261 84.2242 205.261 86.5242Z" fill="#000000" fill-rule="nonzero" opacity="1" stroke="none"/>
<path d="M311.261 77.5242C311.261 79.8242 310.861 80.0242 306.861 80.0242C303.261 80.0242 302.461 80.3242 302.661 81.7242C302.761 83.1242 301.861 83.6242 298.561 83.8242C294.361 84.1242 294.261 84.2242 294.261 87.6242C294.261 91.0242 294.261 91.0242 298.861 91.0242C302.961 91.0242 303.461 91.2242 302.961 93.0242C302.461 94.8242 302.961 95.0242 306.861 95.0242C310.861 95.0242 311.261 95.2242 311.261 97.5242C311.261 99.8242 311.661 100.024 315.761 100.024C319.861 100.024 320.261 99.8242 320.261 97.5242C320.261 95.2242 320.561 95.0242 325.261 95.0242C329.561 95.0242 330.261 94.7242 330.261 93.0242C330.261 91.3242 330.961 91.0242 334.761 91.0242C339.261 91.0242 339.261 91.0242 339.261 87.5242C339.261 84.0242 339.261 84.0242 334.761 84.0242C330.961 84.0242 330.261 83.7242 330.261 82.0242C330.261 80.3242 329.561 80.0242 325.261 80.0242C320.561 80.0242 320.261 79.8242 320.261 77.5242C320.261 75.2242 319.861 75.0242 315.761 75.0242C311.661 75.0242 311.261 75.2242 311.261 77.5242ZM320.261 86.4242C320.261 88.5242 319.761 88.8242 315.761 89.2242C311.461 89.5242 311.261 89.4242 311.261 86.8242C311.261 84.2242 311.561 84.0242 315.761 84.0242C319.861 84.0242 320.261 84.2242 320.261 86.4242Z" fill="#000000" fill-rule="nonzero" opacity="1" stroke="none"/>
<path d="M384.261 77.5242C384.261 79.8242 383.861 80.0242 379.761 80.0242C375.961 80.0242 375.261 80.3242 375.261 82.0242C375.261 83.7242 374.561 84.0242 370.761 84.0242C366.261 84.0242 366.261 84.0242 366.261 87.5242C366.261 91.0242 366.261 91.0242 370.761 91.0242C374.561 91.0242 375.261 91.3242 375.261 93.0242C375.261 94.7242 375.961 95.0242 379.761 95.0242C383.861 95.0242 384.261 95.2242 384.261 97.5242C384.261 99.8242 384.661 100.024 388.761 100.024C392.861 100.024 393.261 99.8242 393.261 97.5242C393.261 95.2242 393.661 95.0242 397.761 95.0242C401.561 95.0242 402.261 94.7242 402.261 93.0242C402.261 91.3242 402.961 91.0242 406.761 91.0242C411.261 91.0242 411.261 91.0242 411.261 87.5242C411.261 84.0242 411.261 84.0242 406.761 84.0242C402.961 84.0242 402.261 83.7242 402.261 82.0242C402.261 80.3242 401.561 80.0242 397.761 80.0242C393.661 80.0242 393.261 79.8242 393.261 77.5242C393.261 75.2242 392.861 75.0242 388.761 75.0242C384.661 75.0242 384.261 75.2242 384.261 77.5242ZM393.261 86.5242C393.261 88.8242 392.861 89.0242 388.761 89.0242C384.661 89.0242 384.261 88.8242 384.261 86.5242C384.261 84.2242 384.661 84.0242 388.761 84.0242C392.861 84.0242 393.261 84.2242 393.261 86.5242Z" fill="#000000" fill-rule="nonzero" opacity="1" stroke="none"/>
<path d="M457.261 77.5242C457.261 79.8242 456.961 80.0242 452.261 80.0242C447.961 80.0242 447.261 80.3242 447.261 82.0242C447.261 83.7242 446.561 84.0242 442.761 84.0242C438.261 84.0242 438.261 84.0242 438.261 87.5242C438.261 91.0242 438.261 91.0242 442.761 91.0242C446.561 91.0242 447.261 91.3242 447.261 93.0242C447.261 94.7242 447.961 95.0242 452.261 95.0242C456.961 95.0242 457.261 95.2242 457.261 97.5242C457.261 99.8242 457.661 100.024 461.761 100.024C465.861 100.024 466.261 99.8242 466.261 97.5242C466.261 95.2242 466.661 95.0242 470.261 95.0242C473.961 95.0242 474.761 94.3242 474.361 91.7242C474.361 91.3242 476.261 91.0242 478.761 91.0242C483.261 91.0242 483.261 91.0242 483.261 87.5242C483.261 84.0242 483.261 84.0242 478.761 84.0242C474.961 84.0242 474.261 83.7242 474.261 82.0242C474.261 80.3242 473.561 80.0242 470.261 80.0242C466.661 80.0242 466.261 79.7242 466.261 77.5242C466.261 75.2242 465.861 75.0242 461.761 75.0242C457.661 75.0242 457.261 75.2242 457.261 77.5242ZM466.261 86.5242C466.261 88.8242 465.861 89.0242 461.761 89.0242C457.661 89.0242 457.261 88.8242 457.261 86.5242C457.261 84.2242 457.661 84.0242 461.761 84.0242C465.861 84.0242 466.261 84.2242 466.261 86.5242Z" fill="#000000" fill-rule="nonzero" opacity="1" stroke="none"/>
<path d="M571.261 77.5242C571.261 79.7242 570.861 80.0242 567.261 80.0242C563.961 80.0242 563.261 80.3242 563.261 82.0242C563.261 83.7242 562.561 84.0242 558.761 84.0242C554.261 84.0242 554.261 84.0242 554.261 87.5242C554.261 91.0242 554.261 91.0242 558.761 91.0242C562.561 91.0242 563.261 91.3242 563.261 93.0242C563.261 94.7242 563.961 95.0242 567.261 95.0242C570.861 95.0242 571.261 95.2242 571.261 97.5242C571.261 99.8242 571.661 100.024 575.761 100.024C579.861 100.024 580.261 99.8242 580.261 97.5242C580.261 95.2242 580.561 95.0242 585.261 95.0242C589.561 95.0242 590.261 94.7242 590.261 93.1242C590.261 91.5242 591.061 91.1242 594.561 90.8242C598.461 90.5242 598.761 90.3242 599.061 87.2242C599.361 84.0242 599.361 84.0242 594.861 84.0242C590.961 84.0242 590.261 83.7242 590.261 82.0242C590.261 80.3242 589.561 80.0242 585.261 80.0242C580.561 80.0242 580.261 79.8242 580.261 77.5242C580.261 75.2242 579.861 75.0242 575.761 75.0242C571.661 75.0242 571.261 75.2242 571.261 77.5242ZM580.261 86.4242C580.261 88.5242 579.761 88.8242 575.761 89.2242C571.461 89.5242 571.261 89.4242 571.261 86.8242C571.261 84.2242 571.561 84.0242 575.761 84.0242C579.861 84.0242 580.261 84.2242 580.261 86.4242Z" fill="#000000" fill-rule="nonzero" opacity="1" stroke="none"/>
<path d="M644.261 77.5242C644.261 79.8242 643.861 80.0242 639.761 80.0242C635.961 80.0242 635.261 80.3242 635.261 82.0242C635.261 83.7242 634.561 84.0242 630.761 84.0242C626.261 84.0242 626.261 84.0242 626.261 87.5242C626.261 91.0242 626.261 91.0242 630.761 91.0242C634.561 91.0242 635.261 91.3242 635.261 93.0242C635.261 94.7242 635.961 95.0242 639.761 95.0242C643.861 95.0242 644.261 95.2242 644.261 97.5242C644.261 99.8242 644.661 100.024 648.761 100.024C652.861 100.024 653.261 99.8242 653.261 97.5242C653.261 95.2242 653.661 95.0242 657.761 95.0242C661.561 95.0242 662.261 94.7242 662.261 93.0242C662.261 91.3242 662.961 91.0242 666.761 91.0242C671.261 91.0242 671.261 91.0242 671.261 87.5242C671.261 84.0242 671.261 84.0242 666.761 84.0242C662.961 84.0242 662.261 83.7242 662.261 82.0242C662.261 80.3242 661.561 80.0242 657.761 80.0242C653.661 80.0242 653.261 79.8242 653.261 77.5242C653.261 75.2242 652.861 75.0242 648.761 75.0242C644.661 75.0242 644.261 75.2242 644.261 77.5242ZM653.261 86.8242C653.261 89.4242 653.061 89.5242 648.761 89.2242C644.761 88.8242 644.261 88.5242 644.261 86.4242C644.261 84.2242 644.661 84.0242 648.761 84.0242C652.961 84.0242 653.261 84.2242 653.261 86.8242Z" fill="#000000" fill-rule="nonzero" opacity="1" stroke="none"/>
<path d="M717.261 77.5242C717.261 79.8242 716.961 80.0242 712.261 80.0242C707.961 80.0242 707.261 80.3242 707.261 82.0242C707.261 83.7242 706.561 84.0242 702.761 84.0242C698.261 84.0242 698.261 84.0242 698.261 87.5242C698.261 91.0242 698.261 91.0242 702.761 91.0242C706.561 91.0242 707.261 91.3242 707.261 93.0242C707.261 94.7242 707.961 95.0242 712.161 95.0242C716.861 95.0242 717.161 95.2242 717.461 97.7242C717.661 99.3242 717.861 94.8242 717.961 87.7242C717.961 80.7242 717.861 75.0242 717.661 75.0242C717.461 75.0242 717.261 76.1242 717.261 77.5242Z" fill="#000000" fill-rule="nonzero" opacity="1" stroke="none"/>
<path d="M-1.73874 87.5242C-1.73874 90.8242-1.53874 91.0242 1.76126 91.0242C5.06126 91.0242 5.26126 90.8242 5.26126 87.5242C5.26126 84.2242 5.06126 84.0242 1.76126 84.0242C-1.53874 84.0242-1.73874 84.2242-1.73874 87.5242Z" fill="#000000" fill-rule="nonzero" opacity="1" stroke="none"/>
<path d="M250.261 87.5242L250.261 91.0242L258.261 91.0242L266.261 91.0242L266.261 87.5242L266.261 84.0242L258.261 84.0242L250.261 84.0242L250.261 87.5242Z" fill="#000000" fill-rule="nonzero" opacity="1" stroke="none"/>
<path d="M511.261 87.5242L511.261 91.0242L518.761 91.0242L526.261 91.0242L526.261 87.5242L526.261 84.0242L518.761 84.0242L511.261 84.0242L511.261 87.5242Z" fill="#000000" fill-rule="nonzero" opacity="1" stroke="none"/>
<path d="M15.2613 92.0242C15.2613 94.9242 15.1613 95.0242 10.2613 95.0242C5.56126 95.0242 5.26126 95.2242 5.26126 97.5242C5.26126 99.7242 4.86126 100.024 1.76126 100.024L-1.73874 100.024L-1.73874 106.524L-1.73874 113.024L358.261 113.024C700.461 113.024 718.261 112.924 718.261 111.224C718.161 106.224 717.161 105.024 712.661 105.024C708.661 105.024 708.261 104.824 708.261 102.524C708.261 100.224 707.861 100.024 703.761 100.024C699.661 100.024 699.261 99.8242 699.261 97.5242C699.261 95.2242 698.861 95.0242 694.761 95.0242C690.461 95.0242 690.261 94.9242 690.261 92.0242C690.261 89.1242 690.161 89.0242 685.261 89.0242C680.361 89.0242 680.261 89.1242 680.261 92.0242C680.261 94.9242 680.161 95.0242 675.261 95.0242C670.561 95.0242 670.261 95.2242 670.261 97.5242C670.261 99.7242 669.861 100.024 666.261 100.024C662.661 100.024 662.261 100.224 662.261 102.524C662.261 104.824 661.861 105.024 657.761 105.024C654.461 105.024 653.261 105.424 653.261 106.524C653.261 107.624 652.061 108.024 648.761 108.024C645.461 108.024 644.261 107.624 644.261 106.524C644.261 105.424 643.061 105.024 639.761 105.024C635.661 105.024 635.261 104.824 635.261 102.524C635.261 100.224 634.861 100.024 631.261 100.024C627.661 100.024 627.261 99.7242 627.261 97.5242C627.261 95.2242 626.961 95.0242 622.261 95.0242C617.361 95.0242 617.261 94.9242 617.261 92.0242C617.261 89.1242 617.161 89.0242 612.261 89.0242C607.361 89.0242 607.261 89.1242 607.261 92.0242C607.261 94.9242 607.061 95.0242 602.761 95.0242C598.661 95.0242 598.261 95.2242 598.261 97.5242C598.261 99.8242 597.861 100.024 593.761 100.024C589.661 100.024 589.261 100.224 589.261 102.524C589.261 104.824 588.861 105.024 584.761 105.024C581.461 105.024 580.261 105.424 580.261 106.524C580.261 107.624 579.061 108.024 575.761 108.024C572.461 108.024 571.261 107.624 571.261 106.524C571.261 105.424 570.161 105.024 567.261 105.024C563.661 105.024 563.261 104.724 563.261 102.524C563.261 100.224 562.861 100.024 558.761 100.024C554.661 100.024 554.261 99.8242 554.261 97.5242C554.261 95.2242 553.861 95.0242 549.761 95.0242C545.461 95.0242 545.261 94.9242 545.261 92.0242C545.261 89.1242 545.061 89.0242 540.761 89.0242C536.461 89.0242 536.261 89.1242 536.261 92.0242C536.261 94.9242 536.161 95.0242 531.261 95.0242C526.561 95.0242 526.261 95.2242 526.261 97.5242C526.261 99.9242 526.061 100.024 518.761 100.024C511.461 100.024 511.261 99.9242 511.261 97.5242C511.261 95.2242 510.961 95.0242 506.261 95.0242C501.361 95.0242 501.261 94.9242 501.261 92.0242C501.261 89.1242 501.061 89.0242 496.761 89.0242C492.461 89.0242 492.261 89.1242 492.261 92.0242C492.261 94.9242 492.061 95.0242 487.761 95.0242C483.661 95.0242 483.261 95.2242 483.261 97.5242C483.261 99.8242 482.861 100.024 478.761 100.024C474.661 100.024 474.261 100.224 474.261 102.524C474.261 104.724 473.861 105.024 470.261 105.024C467.361 105.024 466.261 105.424 466.261 106.524C466.261 107.624 465.061 108.024 461.761 108.024C458.461 108.024 457.261 107.624 457.261 106.524C457.261 105.424 456.061 105.024 452.761 105.024C448.661 105.024 448.261 104.824 448.261 102.524C448.261 100.224 447.861 100.024 443.761 100.024C439.661 100.024 439.261 99.8242 439.261 97.5242C439.261 95.2242 438.861 95.0242 434.761 95.0242C430.461 95.0242 430.261 94.9242 430.261 92.0242C430.261 89.1242 430.161 89.0242 425.261 89.0242C420.361 89.0242 420.261 89.1242 420.261 92.0242C420.261 94.9242 420.161 95.0242 415.261 95.0242C410.561 95.0242 410.261 95.2242 410.261 97.5242C410.261 99.7242 409.861 100.024 406.261 100.024C402.661 100.024 402.261 100.224 402.261 102.524C402.261 104.824 401.861 105.024 397.761 105.024C394.461 105.024 393.261 105.424 393.261 106.524C393.261 107.624 392.061 108.024 388.761 108.024C385.461 108.024 384.261 107.624 384.261 106.524C384.261 105.424 383.061 105.024 379.761 105.024C375.661 105.024 375.261 104.824 375.261 102.524C375.261 100.224 374.861 100.024 371.261 100.024C367.661 100.024 367.261 99.7242 367.261 97.5242C367.261 95.2242 366.961 95.0242 362.261 95.0242C357.361 95.0242 357.261 94.9242 357.261 92.0242C357.261 89.1242 357.161 89.0242 352.261 89.0242C347.361 89.0242 347.261 89.1242 347.261 92.0242C347.261 94.9242 347.061 95.0242 342.761 95.0242C338.661 95.0242 338.261 95.2242 338.261 97.5242C338.261 99.8242 337.861 100.024 333.761 100.024C329.661 100.024 329.261 100.224 329.261 102.524C329.261 104.824 328.861 105.024 324.761 105.024C321.461 105.024 320.261 105.424 320.261 106.524C320.261 107.624 319.061 108.024 315.761 108.024C312.461 108.024 311.261 107.624 311.261 106.524C311.261 105.424 310.161 105.024 307.261 105.024C303.661 105.024 303.261 104.724 303.261 102.524C303.261 100.224 302.861 100.024 298.761 100.024C294.661 100.024 294.261 99.8242 294.261 97.5242C294.261 95.2242 293.861 95.0242 289.761 95.0242C285.461 95.0242 285.261 94.9242 285.261 92.0242C285.261 89.1242 285.061 89.0242 280.761 89.0242C276.461 89.0242 276.261 89.1242 276.261 92.0242C276.261 94.9242 276.161 95.0242 271.261 95.0242C266.561 95.0242 266.261 95.2242 266.261 97.5242C266.261 100.024 266.161 100.024 258.261 100.024C250.361 100.024 250.261 100.024 250.261 97.5242C250.261 95.2242 249.961 95.0242 245.261 95.0242C240.361 95.0242 240.261 94.9242 240.261 92.0242C240.261 89.1242 240.061 89.0242 235.761 89.0242C231.461 89.0242 231.261 89.1242 231.261 92.0242C231.261 94.9242 231.061 95.0242 226.761 95.0242C222.661 95.0242 222.261 95.2242 222.261 97.5242C222.261 99.8242 221.861 100.024 217.761 100.024C213.661 100.024 213.261 100.224 213.261 102.524C213.261 104.724 212.861 105.024 209.261 105.024C206.361 105.024 205.261 105.424 205.261 106.524C205.261 107.624 204.061 108.024 200.761 108.024C197.461 108.024 196.261 107.624 196.261 106.524C196.261 105.424 195.061 105.024 191.761 105.024C187.661 105.024 187.261 104.824 187.261 102.524C187.261 100.224 186.861 100.024 182.761 100.024C178.661 100.024 178.261 99.8242 178.261 97.5242C178.261 95.2242 177.861 95.0242 173.761 95.0242C169.461 95.0242 169.261 94.9242 169.261 92.0242C169.261 89.1242 169.161 89.0242 164.261 89.0242C159.361 89.0242 159.261 89.1242 159.261 92.0242C159.261 94.9242 159.161 95.0242 154.261 95.0242C149.561 95.0242 149.261 95.2242 149.261 97.5242C149.261 99.7242 148.861 100.024 145.261 100.024C141.661 100.024 141.261 100.224 141.261 102.524C141.261 104.824 140.861 105.024 136.761 105.024C133.461 105.024 132.261 105.424 132.261 106.524C132.261 107.624 131.061 108.024 127.761 108.024C124.461 108.024 123.261 107.624 123.261 106.524C123.261 105.424 122.061 105.024 118.761 105.024C114.661 105.024 114.261 104.824 114.261 102.524C114.261 100.224 113.861 100.024 110.261 100.024C106.661 100.024 106.261 99.7242 106.261 97.5242C106.261 95.2242 105.961 95.0242 101.261 95.0242C96.3613 95.0242 96.2613 94.9242 96.2613 92.0242C96.2613 89.1242 96.1613 89.0242 91.2613 89.0242C86.3613 89.0242 86.2613 89.1242 86.2613 92.0242C86.2613 94.9242 86.0613 95.0242 81.7613 95.0242C77.6613 95.0242 77.2613 95.2242 77.2613 97.5242C77.2613 99.8242 76.8613 100.024 72.7613 100.024C68.6613 100.024 68.2613 100.224 68.2613 102.524C68.2613 104.824 67.8613 105.024 63.7613 105.024C60.4613 105.024 59.2613 105.424 59.2613 106.524C59.2613 107.624 58.0613 108.024 54.7613 108.024C51.4613 108.024 50.2613 107.624 50.2613 106.524C50.2613 105.424 49.1613 105.024 46.2613 105.024C42.6613 105.024 42.2613 104.724 42.2613 102.524C42.2613 100.224 41.8613 100.024 37.7613 100.024C33.6613 100.024 33.2613 99.8242 33.2613 97.5242C33.2613 95.2242 32.8613 95.0242 28.7613 95.0242C24.4613 95.0242 24.2613 94.9242 24.2613 92.0242C24.2613 89.1242 24.0613 89.0242 19.7613 89.0242C15.4613 89.0242 15.2613 89.1242 15.2613 92.0242ZM23.2613 102.524C23.2613 104.824 23.5613 105.024 28.2613 105.024C32.0613 105.024 33.2613 105.424 33.2613 106.524C33.2613 107.824 31.0613 108.024 19.2613 108.024C7.66126 108.024 5.26126 107.724 5.26126 106.624C5.26126 105.524 6.76126 105.024 10.5613 104.824C15.0613 104.524 15.7613 104.224 16.0613 102.224C16.3613 100.424 17.0613 100.024 19.8613 100.024C22.8613 100.024 23.2613 100.324 23.2613 102.524ZM96.2613 102.524C96.2613 104.824 96.6613 105.024 100.761 105.024C104.061 105.024 105.261 105.424 105.261 106.524C105.261 107.824 103.061 108.024 91.7613 108.024C80.4613 108.024 78.2613 107.824 78.2613 106.524C78.2613 105.424 79.4613 105.024 82.7613 105.024C86.8613 105.024 87.2613 104.824 87.2613 102.524C87.2613 100.224 87.6613 100.024 91.7613 100.024C95.8613 100.024 96.2613 100.224 96.2613 102.524ZM168.261 102.524C168.261 104.824 168.661 105.024 172.761 105.024C176.061 105.024 177.261 105.424 177.261 106.524C177.261 107.824 175.061 108.024 163.761 108.024C152.461 108.024 150.261 107.824 150.261 106.524C150.261 105.424 151.461 105.024 154.761 105.024C158.861 105.024 159.261 104.824 159.261 102.524C159.261 100.224 159.661 100.024 163.761 100.024C167.861 100.024 168.261 100.224 168.261 102.524ZM239.461 102.524C239.061 104.924 239.161 105.024 244.661 105.024C248.961 105.024 250.261 105.324 250.261 106.524C250.261 107.824 248.061 108.024 236.261 108.024C224.461 108.024 222.261 107.824 222.261 106.524C222.261 105.424 223.461 105.024 227.261 105.024C231.961 105.024 232.261 104.824 232.261 102.524C232.261 100.324 232.661 100.024 236.161 100.024C239.661 100.024 239.961 100.224 239.461 102.524ZM284.261 102.524C284.261 104.824 284.561 105.024 289.261 105.024C293.061 105.024 294.261 105.424 294.261 106.524C294.261 107.824 292.061 108.024 280.261 108.024C268.661 108.024 266.261 107.724 266.261 106.624C266.261 105.524 267.761 105.024 271.561 104.824C276.261 104.524 276.761 104.324 276.661 102.224C276.661 100.324 277.061 100.024 280.461 100.024C283.861 100.024 284.261 100.324 284.261 102.524ZM357.261 102.524C357.261 104.824 357.661 105.024 361.761 105.024C365.061 105.024 366.261 105.424 366.261 106.524C366.261 107.824 364.061 108.024 352.761 108.024C341.461 108.024 339.261 107.824 339.261 106.524C339.261 105.424 340.461 105.024 343.761 105.024C347.861 105.024 348.261 104.824 348.261 102.524C348.261 100.224 348.661 100.024 352.761 100.024C356.861 100.024 357.261 100.224 357.261 102.524ZM429.261 102.524C429.261 104.824 429.661 105.024 433.761 105.024C437.061 105.024 438.261 105.424 438.261 106.524C438.261 107.824 436.061 108.024 424.761 108.024C413.461 108.024 411.261 107.824 411.261 106.524C411.261 105.424 412.461 105.024 415.761 105.024C419.861 105.024 420.261 104.824 420.261 102.524C420.261 100.224 420.661 100.024 424.761 100.024C428.861 100.024 429.261 100.224 429.261 102.524ZM500.461 102.224C500.761 104.224 501.461 104.524 506.061 104.824C509.761 105.024 511.261 105.524 511.261 106.624C511.261 107.724 508.861 108.024 497.261 108.024C485.461 108.024 483.261 107.824 483.261 106.524C483.261 105.424 484.461 105.024 488.261 105.024C492.961 105.024 493.261 104.824 493.261 102.524C493.261 100.324 493.661 100.024 496.661 100.024C499.461 100.024 500.161 100.424 500.461 102.224ZM544.261 102.524C544.261 104.824 544.561 105.024 549.261 105.024C553.061 105.024 554.261 105.424 554.261 106.524C554.261 107.824 552.061 108.024 540.261 108.024C528.461 108.024 526.261 107.824 526.261 106.524C526.261 105.324 527.561 105.024 531.861 105.024C537.361 105.024 537.461 104.924 537.061 102.524C536.561 100.224 536.861 100.024 540.361 100.024C543.861 100.024 544.261 100.324 544.261 102.524ZM617.261 102.524C617.261 104.824 617.661 105.024 621.761 105.024C625.061 105.024 626.261 105.424 626.261 106.524C626.261 107.824 624.061 108.024 612.761 108.024C601.461 108.024 599.261 107.824 599.261 106.524C599.261 105.424 600.461 105.024 603.761 105.024C607.861 105.024 608.261 104.824 608.261 102.524C608.261 100.224 608.661 100.024 612.761 100.024C616.861 100.024 617.261 100.224 617.261 102.524ZM689.261 102.524C689.261 104.824 689.661 105.024 693.761 105.024C697.061 105.024 698.261 105.424 698.261 106.524C698.261 107.824 696.061 108.024 684.761 108.024C673.461 108.024 671.261 107.824 671.261 106.524C671.261 105.424 672.461 105.024 675.761 105.024C679.861 105.024 680.261 104.824 680.261 102.524C680.261 100.224 680.661 100.024 684.761 100.024C688.861 100.024 689.261 100.224 689.261 102.524Z" fill="#000000" fill-rule="nonzero" opacity="1" stroke="none"/>
</g>
</g>
</svg>
