<?xml version="1.0" standalone="no"?>
<!DOCTYPE svg PUBLIC "-//W3C//DTD SVG 20010904//EN"
 "http://www.w3.org/TR/2001/REC-SVG-20010904/DTD/svg10.dtd">
<svg version="1.0" xmlns="http://www.w3.org/2000/svg"
 width="250.000000pt" height="250.000000pt" viewBox="0 0 250.000000 250.000000"
 preserveAspectRatio="xMidYMid meet">

<g transform="translate(0.000000,250.000000) scale(0.100000,-0.100000)"
fill="#000000" stroke="none">
<path d="M1112 2430 c-43 -27 -51 -49 -24 -71 12 -9 22 -22 22 -28 0 -30 -98
-43 -120 -16 -15 18 -6 45 15 45 8 0 15 4 15 10 0 12 -28 2 -57 -21 -20 -15
-21 -18 -8 -29 24 -20 10 -23 -24 -6 -16 9 -40 16 -51 16 -18 0 -19 -2 -7 -14
7 -8 25 -16 38 -19 13 -2 3 -5 -23 -6 -45 -1 -72 12 -46 22 9 4 7 6 -3 6 -9 1
-22 -6 -29 -14 -10 -12 -66 -15 -354 -18 -187 -1 188 -2 834 -2 646 0 1011 1
810 2 -310 3 -366 5 -373 18 -10 18 -38 20 -35 3 2 -8 -12 -13 -42 -14 -25 -1
-35 1 -22 3 12 2 22 11 22 19 0 19 -20 18 -48 -2 -25 -17 -43 -11 -25 7 9 9 3
18 -19 37 -25 21 -34 24 -56 16 -30 -11 -34 -27 -9 -32 12 -2 15 1 11 12 -7
19 0 20 27 6 23 -13 25 -46 3 -54 -9 -4 -63 -9 -120 -13 -99 -6 -105 -5 -124
16 -25 29 -17 77 17 109 13 12 20 22 15 22 -4 0 -18 -9 -30 -20 l-22 -21 -29
22 c-16 12 -34 18 -40 15 -6 -4 -11 -2 -11 3 0 18 -43 12 -78 -9z m70 -24 c-2
-11 1 -16 10 -13 7 2 12 12 12 21 -2 20 6 20 31 2 25 -18 30 -84 8 -108 -17
-19 -53 -25 -53 -8 0 6 5 10 12 10 9 0 9 3 1 11 -15 15 -34 3 -26 -16 4 -12
-5 -15 -43 -14 -36 0 -44 3 -29 8 46 19 71 77 38 88 -7 3 -9 -3 -6 -16 8 -30
-15 -26 -29 4 -15 34 5 57 46 53 24 -2 30 -7 28 -22z m98 -106 c0 -5 -7 -10
-16 -10 -8 0 -12 5 -9 10 3 6 10 10 16 10 5 0 9 -4 9 -10z"/>
<path d="M1337 2429 c-4 -13 -7 -26 -7 -29 -1 -2 4 -6 11 -9 8 -2 10 2 6 12
-11 29 61 38 84 11 10 -13 10 -20 -4 -42 -17 -29 -33 -28 -31 1 1 21 -12 22
-20 1 -7 -20 9 -50 34 -64 32 -17 45 -12 24 11 -16 17 -16 22 -4 29 8 6 18 10
23 10 4 0 7 11 7 25 0 29 -33 53 -82 62 -31 4 -36 2 -41 -18z"/>
<path d="M1030 2355 c0 -8 7 -15 15 -15 8 0 15 7 15 15 0 8 -7 15 -15 15 -8 0
-15 -7 -15 -15z"/>
<path d="M1330 2322 c0 -5 7 -13 16 -16 10 -4 14 -1 12 6 -5 15 -28 23 -28 10z"/>
<path d="M917 2223 c-10 -9 -9 -23 2 -23 5 0 11 7 15 15 5 15 -5 20 -17 8z"/>
<path d="M184 2163 c-16 -32 -30 -61 -32 -65 -2 -5 6 -8 17 -8 12 0 21 6 21
15 0 10 11 15 35 15 24 0 35 -5 35 -15 0 -9 9 -15 21 -15 11 0 19 3 17 8 -2 4
-16 33 -32 65 -15 31 -34 57 -41 57 -7 0 -26 -26 -41 -57z m56 -15 c0 -5 -7
-8 -15 -8 -15 0 -20 21 -8 33 7 7 23 -11 23 -25z"/>
<path d="M1615 2195 c-32 -31 -32 -58 1 -84 31 -24 72 -27 100 -7 26 19 13 29
-21 16 -35 -13 -62 -5 -70 21 -11 34 13 52 62 45 48 -6 56 5 18 22 -39 18 -63
14 -90 -13z"/>
<path d="M918 2193 l-48 -4 0 -50 0 -49 50 0 c28 0 50 5 50 10 0 6 -16 10 -35
10 -19 0 -35 5 -35 10 0 6 11 10 25 10 14 0 25 6 25 14 0 9 -8 12 -25 8 -15
-2 -25 0 -25 7 0 6 16 11 35 11 24 0 35 5 35 15 0 8 -1 14 -2 13 -2 -1 -24 -3
-50 -5z"/>
<path d="M2073 2193 c-29 -2 -53 -8 -53 -14 0 -5 9 -9 20 -9 17 0 20 -7 20
-40 0 -29 4 -40 15 -40 11 0 15 11 15 40 0 33 3 40 20 40 11 0 20 7 20 15 0 8
-1 14 -2 13 -2 -1 -27 -3 -55 -5z"/>
<path d="M2307 2188 c-38 -13 -48 -55 -17 -80 42 -34 100 -16 100 31 0 44 -36
65 -83 49z m57 -35 c9 -23 -17 -47 -43 -38 -20 6 -28 34 -14 48 13 13 51 7 57
-10z"/>
<path d="M320 2140 l0 -50 50 0 c34 0 50 4 50 13 0 9 -11 12 -35 9 -35 -4 -35
-4 -35 37 0 30 -4 41 -15 41 -11 0 -15 -12 -15 -50z"/>
<path d="M440 2140 c0 -37 4 -50 15 -50 11 0 13 8 9 30 -8 36 11 41 20 5 8
-32 17 -32 38 3 l17 27 1 -32 c0 -23 5 -33 15 -33 11 0 15 12 15 50 0 43 -3
50 -20 50 -11 0 -20 -4 -20 -8 0 -5 -6 -17 -14 -27 -14 -19 -15 -19 -27 8 -7
15 -20 27 -31 27 -15 0 -18 -8 -18 -50z"/>
<path d="M616 2147 c-11 -23 -22 -45 -24 -49 -2 -5 3 -8 11 -8 8 0 17 7 21 15
3 8 15 15 26 15 11 0 23 -7 26 -15 4 -8 14 -15 24 -15 16 0 15 5 -9 50 -14 27
-33 50 -41 50 -8 0 -24 -19 -34 -43z m44 -2 c0 -8 -4 -15 -10 -15 -5 0 -10 7
-10 15 0 8 5 15 10 15 6 0 10 -7 10 -15z"/>
<path d="M742 2178 c-17 -17 -15 -53 4 -72 25 -25 94 -18 94 9 0 11 -6 11 -30
2 -24 -9 -33 -9 -45 4 -10 9 -13 23 -9 33 6 15 15 17 46 13 27 -4 38 -2 35 6
-5 17 -79 21 -95 5z"/>
<path d="M990 2140 c0 -38 4 -50 15 -50 10 0 15 10 15 30 0 38 9 38 39 0 35
-45 51 -39 51 20 0 39 -4 50 -16 50 -12 0 -14 -7 -9 -32 l7 -33 -34 33 c-51
48 -68 43 -68 -18z"/>
<path d="M1170 2140 l0 -50 40 0 c27 0 47 7 60 20 41 41 13 80 -56 80 l-44 0
0 -50z m88 6 c4 -20 -13 -36 -40 -36 -13 0 -18 8 -18 31 0 27 3 30 27 27 18
-2 29 -10 31 -22z"/>
<path d="M1310 2140 l0 -50 55 0 c38 0 55 4 55 13 0 9 -12 11 -40 9 -25 -3
-40 0 -40 7 0 6 11 11 25 11 14 0 25 5 25 10 0 6 -11 10 -25 10 -14 0 -25 5
-25 10 0 6 18 10 40 10 22 0 40 5 40 10 0 6 -25 10 -55 10 l-55 0 0 -50z"/>
<path d="M1440 2140 l0 -50 50 0 c34 0 50 4 50 13 0 9 -11 12 -35 9 -35 -4
-35 -4 -35 37 0 30 -4 41 -15 41 -11 0 -15 -12 -15 -50z"/>
<path d="M1760 2140 l0 -50 50 0 c28 0 50 5 50 10 0 6 -16 10 -35 10 -19 0
-35 5 -35 10 0 6 11 10 25 10 14 0 25 6 25 14 0 9 -8 12 -25 8 -15 -2 -25 0
-25 7 0 6 16 11 35 11 19 0 35 5 35 10 0 6 -22 10 -50 10 l-50 0 0 -50z"/>
<path d="M1890 2140 c0 -38 4 -50 15 -50 10 0 15 10 15 32 l0 32 33 -32 c46
-45 57 -41 57 18 0 38 -4 50 -15 50 -9 0 -15 -9 -15 -25 0 -14 -4 -25 -9 -25
-5 0 -18 11 -29 25 -33 42 -52 33 -52 -25z"/>
<path d="M2150 2140 c0 -38 4 -50 15 -50 8 0 15 9 15 20 0 11 6 20 14 20 8 0
18 -9 21 -20 4 -12 15 -20 27 -20 20 0 20 1 5 18 -15 17 -15 19 0 34 28 29 9
48 -47 48 l-50 0 0 -50z m80 20 c0 -5 -11 -10 -25 -10 -14 0 -25 5 -25 10 0 6
11 10 25 10 14 0 25 -4 25 -10z"/>
<path d="M853 1980 c-16 -7 -23 -21 -28 -57 -17 -115 -57 -159 -158 -170 -87
-10 -88 -11 -85 -111 l3 -87 37 -20 c65 -35 68 -52 68 -408 -1 -171 -5 -332
-9 -356 -11 -53 -39 -94 -72 -101 -23 -5 -24 -11 -27 -84 l-3 -79 58 -56 c89
-86 417 -297 596 -382 l47 -23 48 23 c159 76 522 307 605 383 l47 44 0 87 c0
85 -1 87 -23 87 -29 0 -55 27 -67 69 -5 18 -10 190 -11 382 -1 311 1 352 15
375 10 14 25 28 34 31 44 16 52 33 52 119 0 95 -2 98 -87 107 -90 10 -114 37
-121 139 -3 40 -10 72 -19 79 -7 7 -55 14 -106 17 l-93 5 -27 -54 c-33 -66
-58 -84 -139 -105 -99 -26 -227 -5 -281 44 -11 9 -30 38 -43 65 l-24 47 -83
-1 c-45 0 -92 -4 -104 -9z m171 -159 c72 -73 149 -105 256 -105 75 0 93 4 152
31 39 19 86 51 112 77 51 53 82 60 92 19 21 -91 105 -164 190 -167 44 -1 44
-1 44 -37 0 -32 -3 -37 -30 -42 -19 -4 -35 -17 -47 -39 -16 -30 -18 -72 -21
-448 -4 -458 -4 -457 59 -494 23 -13 29 -24 29 -51 0 -27 -8 -40 -47 -73 -99
-81 -247 -174 -454 -285 l-86 -46 -149 82 c-164 91 -207 118 -336 216 -86 64
-88 67 -88 107 0 33 5 43 25 54 14 8 35 28 46 46 19 32 20 47 17 451 -3 383
-5 421 -21 446 -10 16 -31 30 -48 34 -27 5 -30 9 -27 41 3 34 5 36 43 40 91 8
156 62 185 155 16 52 44 49 104 -12z"/>
<path d="M940 1798 c-32 -79 -94 -133 -172 -146 l-43 -8 31 -17 c57 -30 58
-42 62 -502 3 -458 0 -486 -53 -515 -78 -41 33 -139 350 -309 l166 -89 127 68
c201 107 204 108 303 179 52 38 100 79 108 93 14 24 13 27 -26 64 -32 30 -43
49 -48 84 -3 25 -5 225 -3 445 3 382 4 402 24 435 11 19 30 40 43 46 19 10 20
12 6 18 -9 3 -24 6 -33 6 -14 0 -14 -2 -3 -9 11 -7 10 -13 -7 -31 -12 -13 -26
-45 -31 -72 -15 -68 -15 -824 0 -869 6 -19 27 -48 47 -66 l37 -32 -35 -36
c-19 -20 -66 -57 -105 -84 -74 -51 -385 -221 -404 -221 -26 0 -335 171 -421
233 -115 83 -131 111 -85 141 53 35 55 53 55 505 -1 433 -4 465 -45 511 -15
17 -14 19 20 30 45 15 97 59 126 108 13 20 24 39 26 41 2 2 20 -9 41 -26 20
-16 48 -35 62 -42 21 -10 22 -9 6 1 -11 7 -41 32 -67 56 l-46 42 -13 -32z"/>
<path d="M1575 1799 c-71 -75 -163 -109 -295 -109 -48 0 -109 7 -135 15 -66
19 -70 11 -5 -10 72 -24 206 -22 288 3 35 11 87 39 119 62 43 33 57 39 64 29
5 -8 9 -17 9 -21 0 -27 122 -129 137 -115 2 3 -5 8 -17 12 -38 12 -93 69 -114
118 l-22 48 -29 -32z"/>
<path d="M1223 1506 c-59 -19 -122 -58 -162 -100 -39 -41 -77 -49 -66 -16 15
48 -58 97 -103 69 -24 -15 -42 -51 -42 -84 0 -32 53 -75 92 -75 28 0 30 -2 24
-27 -15 -60 -18 -195 -6 -256 14 -74 43 -143 72 -174 26 -28 21 -34 -37 -40
-48 -6 -58 4 -25 25 40 25 13 82 -39 82 -62 0 -94 -85 -49 -127 39 -34 81 -43
150 -31 81 13 72 14 148 -19 85 -37 208 -39 282 -5 l48 21 29 -24 c38 -33 102
-34 132 -4 l22 22 -54 22 c-62 24 -71 49 -21 51 33 2 72 28 72 48 0 19 -115
14 -137 -6 -11 -10 -22 -18 -26 -18 -13 0 -36 58 -42 106 l-7 49 64 43 c36 23
72 42 81 42 25 0 30 -18 7 -32 -11 -7 -20 -18 -20 -25 0 -16 6 -16 31 -3 13 8
19 7 19 0 0 -6 -11 -15 -25 -20 -32 -12 -32 -30 -1 -30 24 0 66 41 66 64 0 24
-27 48 -60 55 l-35 8 28 8 c20 5 33 3 46 -9 19 -18 31 -12 31 15 0 33 -55 39
-93 9 -38 -30 -46 -26 -36 17 9 41 -5 69 -16 33 l-7 -22 -23 22 c-26 25 -41
13 -20 -16 12 -16 11 -21 -2 -37 -18 -19 -9 -37 9 -19 17 17 28 15 28 -6 0
-17 -48 -72 -63 -72 -4 0 -7 79 -7 175 l0 175 -146 0 c-150 0 -163 4 -101 37
42 22 147 21 207 -1 25 -9 60 -31 77 -48 l33 -32 25 24 25 24 -6 -31 c-7 -37
15 -54 56 -44 49 13 52 96 5 127 -22 14 -27 14 -59 -1 -35 -17 -36 -17 -75 14
-86 68 -210 96 -298 67z m67 -214 c0 -5 -25 -41 -55 -81 -59 -78 -64 -94 -38
-123 15 -17 15 -19 -3 -32 -18 -14 -18 -15 -1 -33 9 -11 17 -29 17 -41 0 -27
-29 -102 -40 -102 -12 0 -37 69 -49 135 -14 74 -13 167 2 225 11 40 16 46 47
51 54 10 120 10 120 1z m108 -109 l-3 -68 -34 -3 c-29 -3 -33 -1 -26 15 4 10
16 42 27 71 12 28 25 52 30 52 5 0 8 -30 6 -67z m7 -180 c4 -12 0 -22 -11 -28
-85 -51 -106 -82 -88 -132 9 -26 13 -28 77 -31 64 -3 85 -13 51 -26 -28 -11
-99 -6 -150 9 -80 24 -82 28 -39 70 20 21 47 59 59 84 12 25 25 52 29 59 12
19 64 15 72 -5z m-12 -114 c-15 -46 -22 -54 -43 -54 -18 0 -25 5 -25 19 0 11
6 21 14 24 9 3 11 -1 6 -17 -5 -16 -3 -20 9 -15 9 3 16 17 16 29 0 13 5 27 10
30 6 4 10 14 9 23 -3 29 1 36 11 26 8 -8 5 -27 -7 -65z m-43 22 c-10 -20 -30
-29 -30 -14 0 10 33 44 37 39 3 -2 0 -14 -7 -25z"/>
</g>
</svg>
